<?xml version="1.0" encoding="UTF-8" standalone="no"?>
<svg
   xmlns:xhtml="http://www.w3.org/1999/xhtml"
   xmlns:dc="http://purl.org/dc/elements/1.1/"
   xmlns:cc="http://creativecommons.org/ns#"
   xmlns:rdf="http://www.w3.org/1999/02/22-rdf-syntax-ns#"
   xmlns:svg="http://www.w3.org/2000/svg"
   xmlns="http://www.w3.org/2000/svg"
   xmlns:sodipodi="http://sodipodi.sourceforge.net/DTD/sodipodi-0.dtd"
   xmlns:inkscape="http://www.inkscape.org/namespaces/inkscape"
   width="268"
   height="268"
   viewBox="0 0 268 268"
   version="1.1"
   xml:space="preserve"
   style="clip-rule:evenodd;fill-rule:evenodd;stroke-linejoin:round;stroke-miterlimit:2"
   id="svg1013"
   sodipodi:docname="icon.svg"
   inkscape:version="1.0.2 (1.0.2+r75+1)"><metadata
   id="metadata1019"><rdf:RDF><cc:Work
       rdf:about=""><dc:format>image/svg+xml</dc:format><dc:type
         rdf:resource="http://purl.org/dc/dcmitype/StillImage" /><dc:title></dc:title></cc:Work></rdf:RDF></metadata><defs
   id="defs1017" /><sodipodi:namedview
   pagecolor="#ffffff"
   bordercolor="#666666"
   borderopacity="1"
   objecttolerance="10"
   gridtolerance="10"
   guidetolerance="10"
   inkscape:pageopacity="0"
   inkscape:pageshadow="2"
   inkscape:window-width="1920"
   inkscape:window-height="1016"
   id="namedview1015"
   showgrid="false"
   inkscape:zoom="1.5727612"
   inkscape:cx="9.2158048"
   inkscape:cy="158.68377"
   inkscape:window-x="0"
   inkscape:window-y="27"
   inkscape:window-maximized="1"
   inkscape:current-layer="svg1013" />
    
    
    
    
    
    
    
    
    
    
    
    
    
    
    
    
    <g
   id="g1055"
   transform="translate(-1.2100563,0.0618261)"><g
     transform="matrix(5.55556,0,0,5.55556,104.12906,246.941)"
     id="g947">
        <path
   d="m 0,-0.08 c 0.007,-0.275 0.011,-0.552 0.011,-0.831 0,-0.084 0.003,-0.158 0.007,-0.222 0.002,-0.031 0.009,-0.055 0.021,-0.07 0.004,-0.005 0.022,-0.024 0.075,-0.042 0.038,-0.012 0.112,-0.027 0.251,-0.027 0.083,0 0.16,-0.01 0.228,-0.029 0.131,-0.038 0.208,-0.149 0.208,-0.298 0,-0.074 -0.032,-0.144 -0.097,-0.208 L 0.651,-1.86 H -0.06 c -0.074,0 -0.15,0.004 -0.229,0.012 -0.208,0.021 -0.396,0.01 -0.544,-0.011 -0.115,-0.015 -0.249,-0.023 -0.397,-0.023 h -0.08 c -0.049,0 -0.101,0.004 -0.156,0.013 -0.135,0.021 -0.223,0.124 -0.223,0.263 0,0.2 0.126,0.275 0.181,0.298 0.066,0.027 0.143,0.044 0.228,0.049 0.063,0.005 0.129,0.014 0.196,0.025 0.036,0.006 0.066,0.021 0.075,0.027 10e-4,0.001 0.017,0.029 0.032,0.125 0.014,0.088 0.02,0.169 0.02,0.244 v 0.139 c 0,0.12 -0.001,0.241 -0.003,0.362 -0.003,0.123 -0.004,0.249 -0.004,0.374 l -0.008,0.676 c 0,0.085 -0.005,0.175 -0.017,0.267 -0.009,0.071 -0.025,0.09 -0.032,0.096 -0.027,0.023 -0.06,0.04 -0.103,0.05 -0.071,0.016 -0.138,0.031 -0.202,0.042 -0.075,0.014 -0.141,0.032 -0.198,0.051 -0.121,0.043 -0.194,0.14 -0.194,0.262 0,0.133 0.07,0.239 0.188,0.282 0.066,0.025 0.135,0.037 0.205,0.037 h 0.103 c 0.078,0 0.147,-0.003 0.206,-0.008 C -0.958,1.787 -0.905,1.78 -0.854,1.772 -0.811,1.765 -0.766,1.76 -0.716,1.756 -0.573,1.742 -0.35,1.749 -0.151,1.77 0.072,1.794 0.3,1.802 0.511,1.781 0.674,1.765 0.78,1.647 0.78,1.481 0.78,1.354 0.698,1.254 0.567,1.22 0.507,1.203 0.439,1.188 0.362,1.175 0.293,1.163 0.221,1.149 0.146,1.135 0.104,1.128 0.072,1.114 0.053,1.097 0.041,1.086 0.024,1.066 0.015,1.022 0.002,0.958 -0.006,0.897 -0.011,0.838 V 0.742 c 0,-0.277 0.004,-0.55 0.011,-0.822"
   style="fill:#0057a8;fill-rule:nonzero"
   id="path945" />
    </g><g
     transform="matrix(5.55556,0,0,5.55556,126.02296,229.347)"
     id="g951">
        <path
   d="m 0,4.031 c -0.064,0.113 -0.148,0.207 -0.251,0.279 -0.094,0.066 -0.209,0.099 -0.353,0.099 -0.171,0 -0.305,-0.04 -0.41,-0.12 C -1.128,4.202 -1.217,4.089 -1.283,3.955 -1.353,3.81 -1.403,3.65 -1.432,3.48 -1.462,3.304 -1.477,3.132 -1.477,2.972 c 0,-0.085 0.003,-0.162 0.011,-0.237 L -1.447,2.55 c 0.033,-0.038 0.074,-0.079 0.121,-0.122 0.064,-0.06 0.136,-0.117 0.214,-0.17 0.074,-0.051 0.156,-0.096 0.242,-0.133 0.218,-0.092 0.449,-0.049 0.603,0.041 0.106,0.063 0.19,0.141 0.256,0.24 0.068,0.104 0.12,0.226 0.154,0.361 0.036,0.142 0.053,0.287 0.053,0.432 0,0.137 -0.016,0.283 -0.048,0.435 C 0.119,3.778 0.068,3.912 0,4.031 M 0.716,4.39 C 0.868,4.209 0.988,4 1.073,3.77 1.157,3.538 1.201,3.295 1.201,3.046 1.201,2.816 1.165,2.599 1.095,2.4 1.024,2.198 0.92,2.02 0.784,1.871 0.648,1.722 0.482,1.602 0.289,1.516 -0.027,1.377 -0.428,1.345 -0.782,1.446 c -0.131,0.037 -0.254,0.086 -0.366,0.145 -0.033,0.017 -0.065,0.034 -0.096,0.052 0.076,-0.211 0.17,-0.416 0.281,-0.612 0.196,-0.343 0.45,-0.651 0.755,-0.915 0.07,-0.06 0.141,-0.117 0.212,-0.17 0.071,-0.053 0.144,-0.101 0.211,-0.14 0.018,-0.009 0.05,-0.024 0.096,-0.045 0.053,-0.023 0.104,-0.048 0.152,-0.074 0.058,-0.03 0.11,-0.064 0.155,-0.1 0.08,-0.065 0.121,-0.14 0.121,-0.221 0,-0.084 -0.034,-0.163 -0.099,-0.222 C 0.603,-0.89 0.568,-0.916 0.533,-0.936 L 0.484,-0.965 0.427,-0.96 c -0.073,0.006 -0.151,0.027 -0.24,0.064 -0.073,0.03 -0.137,0.058 -0.193,0.083 -0.35,0.163 -0.68,0.369 -0.982,0.613 -0.303,0.245 -0.572,0.526 -0.8,0.834 -0.229,0.312 -0.411,0.653 -0.54,1.016 -0.131,0.367 -0.197,0.757 -0.197,1.161 0,0.209 0.022,0.415 0.066,0.614 0.045,0.202 0.113,0.393 0.207,0.572 0.094,0.179 0.216,0.342 0.364,0.484 0.148,0.144 0.329,0.263 0.542,0.355 0.256,0.107 0.515,0.16 0.771,0.16 0.265,0 0.512,-0.055 0.732,-0.165 C 0.373,4.723 0.562,4.574 0.716,4.39"
   style="fill:#0057a8;fill-rule:nonzero"
   id="path949" />
    </g><g
     transform="matrix(5.55556,0,0,5.55556,143.93186,241.643)"
     id="g955">
        <path
   d="m 0,3.636 c -0.14,0.127 -0.307,0.237 -0.496,0.33 -0.189,0.092 -0.39,0.169 -0.597,0.229 -0.066,0.009 -0.123,0.044 -0.159,0.096 -0.031,0.042 -0.05,0.092 -0.057,0.146 -0.007,0.066 0.009,0.129 0.047,0.183 0.027,0.038 0.09,0.102 0.209,0.102 h 0.002 L -1.049,4.721 C -0.774,4.716 -0.488,4.652 -0.197,4.532 0.09,4.413 0.355,4.251 0.593,4.05 0.832,3.847 1.033,3.608 1.188,3.341 1.35,3.062 1.432,2.765 1.432,2.457 1.432,2.249 1.396,2.052 1.324,1.871 1.251,1.686 1.144,1.526 1.007,1.393 0.868,1.261 0.697,1.16 0.499,1.096 0.439,1.076 0.377,1.06 0.313,1.05 0.395,0.964 0.477,0.871 0.555,0.773 0.657,0.644 0.746,0.509 0.818,0.371 0.9,0.217 0.941,0.071 0.941,-0.06 0.941,-0.241 0.908,-0.397 0.841,-0.525 0.774,-0.651 0.685,-0.756 0.577,-0.838 0.471,-0.917 0.35,-0.975 0.219,-1.01 c -0.252,-0.068 -0.525,-0.076 -0.802,0.036 -0.131,0.053 -0.252,0.119 -0.361,0.195 -0.112,0.079 -0.204,0.165 -0.276,0.257 -0.09,0.113 -0.131,0.227 -0.12,0.351 0.01,0.069 0.046,0.132 0.101,0.184 0.059,0.051 0.118,0.062 0.157,0.062 0.059,0 0.113,-0.023 0.164,-0.074 0.106,-0.119 0.203,-0.216 0.29,-0.288 0.123,-0.099 0.378,-0.12 0.547,0.043 0.08,0.076 0.121,0.207 0.121,0.389 0,0.1 -0.03,0.202 -0.09,0.31 -0.069,0.12 -0.156,0.236 -0.259,0.344 C -0.415,0.91 -0.53,1.011 -0.651,1.1 -0.774,1.191 -0.887,1.264 -0.979,1.315 l -0.142,0.068 c -0.173,0.085 -0.2,0.209 -0.2,0.276 0,0.182 0.116,0.305 0.29,0.305 0.066,0 0.132,-0.028 0.23,-0.094 0.047,-0.032 0.084,-0.056 0.124,-0.074 0.062,-0.031 0.12,-0.047 0.181,-0.047 l 0.035,0.002 c 0.1,0.009 0.196,0.023 0.287,0.04 0.097,0.02 0.182,0.057 0.256,0.109 0.076,0.055 0.139,0.123 0.191,0.203 0.054,0.085 0.096,0.179 0.125,0.279 0.029,0.102 0.044,0.202 0.044,0.301 0,0.194 -0.039,0.372 -0.116,0.526 C 0.246,3.369 0.136,3.512 0,3.636"
   style="fill:#0057a8;fill-rule:nonzero"
   id="path953" />
    </g><g
     transform="matrix(5.55556,0,0,5.55556,171.92886,245.028)"
     id="g959">
        <path
   d="M 0,0.527 C -0.131,0.474 -0.268,0.517 -0.357,0.641 L -0.566,0.94 c -0.05,0.072 -0.103,0.147 -0.158,0.224 -0.055,0.076 -0.106,0.146 -0.149,0.201 -0.001,0.002 -0.034,0.029 -0.166,0.057 -0.13,0.027 -0.273,0.044 -0.425,0.051 -0.134,0.006 -0.263,0.005 -0.387,0 0.045,-0.045 0.092,-0.096 0.143,-0.151 0.1,-0.106 0.205,-0.226 0.314,-0.359 0.11,-0.132 0.215,-0.267 0.312,-0.406 0.098,-0.137 0.185,-0.273 0.259,-0.402 0.079,-0.14 0.132,-0.264 0.159,-0.374 0.118,-0.419 0.079,-0.768 -0.115,-1.036 -0.196,-0.27 -0.504,-0.407 -0.915,-0.407 -0.077,0 -0.153,0.003 -0.228,0.008 -0.085,0.006 -0.173,0.023 -0.262,0.052 -0.092,0.03 -0.186,0.077 -0.283,0.143 -0.096,0.064 -0.194,0.154 -0.299,0.269 -0.019,0.018 -0.044,0.049 -0.077,0.094 l -0.075,0.104 c -0.034,0.047 -0.062,0.093 -0.084,0.141 -0.028,0.061 -0.043,0.112 -0.043,0.16 0,0.091 0.041,0.172 0.116,0.226 0.08,0.059 0.182,0.067 0.271,0.022 0.062,-0.031 0.115,-0.086 0.16,-0.169 0.021,-0.037 0.052,-0.079 0.091,-0.126 0.034,-0.037 0.081,-0.072 0.145,-0.102 0.041,-0.02 0.123,-0.044 0.276,-0.044 0.275,0 0.351,0.115 0.376,0.153 0.069,0.104 0.062,0.263 -0.016,0.469 -0.052,0.126 -0.122,0.268 -0.209,0.422 -0.092,0.16 -0.196,0.327 -0.312,0.496 -0.117,0.172 -0.242,0.345 -0.376,0.517 -0.135,0.172 -0.27,0.334 -0.394,0.473 -0.075,0.073 -0.091,0.15 -0.091,0.201 0,0.045 0,0.183 0.106,0.265 0.047,0.039 0.108,0.061 0.18,0.067 l 0.053,0.004 c 0.096,0 0.161,-0.063 0.202,-0.112 0.112,0 0.236,-0.001 0.371,-0.003 0.157,-0.003 0.298,-0.004 0.418,-0.004 0.301,0.01 0.552,0.03 0.747,0.06 0.209,0.032 0.386,0.054 0.518,0.063 l 0.031,0.002 c 0.106,0 0.221,-0.074 0.236,-0.239 0.005,-0.051 0.014,-0.126 0.028,-0.223 0.014,-0.094 0.042,-0.215 0.086,-0.358 0.042,-0.138 0.12,-0.3 0.233,-0.48 L 0.252,0.809 0.213,0.721 C 0.186,0.66 0.127,0.576 0,0.527"
   style="fill:#0057a8;fill-rule:nonzero"
   id="path957" />
    </g><g
     transform="matrix(5.55556,0,0,5.55556,54.946299,19.1144)"
     id="g963">
        <path
   d="M 0,6.879 H 28.895 L 14.448,0 Z"
   style="fill:#0057a8;fill-rule:nonzero"
   id="path961" />
    </g><g
     transform="matrix(-5.55556,0,0,5.55556,3663.7369,-792.735)"
     id="g967">
        <rect
   x="620"
   y="154.38499"
   width="30.268999"
   height="1.377"
   style="fill:#0057a8"
   id="rect965" />
    </g><g
     transform="matrix(5.55556,0,0,5.55556,-3393.3131,-540.452)"
     id="g971">
        <rect
   x="619.99902"
   y="130.304"
   width="8.257"
   height="4.1279998"
   style="fill:#0057a8"
   id="rect969" />
    </g><g
     transform="matrix(-5.55556,0,0,5.55556,3786.0369,-540.452)"
     id="g975">
        <rect
   x="642.01398"
   y="130.304"
   width="8.2550001"
   height="4.1279998"
   style="fill:#0057a8"
   id="rect973" />
    </g><g
     transform="matrix(-5.55556,0,0,5.55556,3633.1569,-540.452)"
     id="g979">
        <rect
   x="631.00702"
   y="130.304"
   width="2.7509999"
   height="4.1279998"
   style="fill:#0057a8"
   id="rect977" />
    </g><g
     transform="matrix(-5.55556,0,0,5.55556,3694.2969,-540.452)"
     id="g983">
        <rect
   x="636.50897"
   y="130.304"
   width="2.7509999"
   height="4.1279998"
   style="fill:#0057a8"
   id="rect981" />
    </g><g
     transform="matrix(-0.11107,5.55445,5.55445,0.11107,106.66246,123.253)"
     id="g987">
        <path
   d="M -7.547,-9.805 H 9.659 L 9.604,-7.054 -7.588,-7.741 Z"
   style="fill:#0057a8;fill-rule:nonzero"
   id="path985" />
    </g><g
     transform="matrix(-5.55556,0,0,5.55556,83.620159,175.816)"
     id="g991">
        <path
   d="M -2.065,-17.203 H 0.001 L 0.344,0 h -2.753 z"
   style="fill:#0057a8;fill-rule:nonzero"
   id="path989" />
    </g><g
     transform="matrix(-5.55556,0,0,5.55556,114.19516,175.816)"
     id="g995">
        <path
   d="M -2.064,-17.203 H 0.001 L 0.344,0 h -2.752 z"
   style="fill:#0057a8;fill-rule:nonzero"
   id="path993" />
    </g><g
     transform="matrix(-5.55556,0,0,5.55556,144.76686,175.816)"
     id="g999">
        <path
   d="M -2.063,-17.203 H 0.001 L 0.344,0 h -2.751 z"
   style="fill:#0057a8;fill-rule:nonzero"
   id="path997" />
    </g><g
     transform="matrix(5.55556,0,0,5.55556,173.43086,80.2433)"
     id="g1003">
        <path
   d="M 0,17.203 H 2.753 L 2.41,0 H 0.346 Z"
   style="fill:#0057a8;fill-rule:nonzero"
   id="path1001" />
    </g><g
     transform="matrix(-5.55556,0,0,5.55556,205.91386,175.816)"
     id="g1007">
        <path
   d="M -2.065,-17.203 H 0 L 0.343,0 h -2.751 z"
   style="fill:#0057a8;fill-rule:nonzero"
   id="path1005" />
    </g><g
     transform="matrix(5.55556,0,0,5.55556,219.29186,9.53889)"
     id="g1011">
        <path
   d="M 0,5.508 -15.134,-1.717 -30.269,5.508 V 7.225 L -15.134,0.002 0,7.225 Z"
   style="fill:#0057a8;fill-rule:nonzero"
   id="path1009" />
    </g></g>
<xhtml:iframe
   class="cleanslate hidden"
   src="icon_files/commandline.html"
   id="cmdline_iframe"
   loading="lazy"
   style="height: 0px !important;" /></svg>
